<svg version="1.1" id="Layer_1" xmlns="http://www.w3.org/2000/svg" xmlns:xlink="http://www.w3.org/1999/xlink" x="0px" y="0px"
	 width="100%" viewBox="0 0 1024 1024" enable-background="new 0 0 1024 1024" xml:space="preserve">
<path fill="#000000" opacity="1.000000" stroke="none" 
	d="
M570.000000,1025.000000 
	C380.000000,1025.000000 190.500000,1025.000000 1.000000,1025.000000 
	C1.000000,683.666687 1.000000,342.333344 1.000000,1.000000 
	C342.333344,1.000000 683.666687,1.000000 1025.000000,1.000000 
	C1025.000000,342.333344 1025.000000,683.666687 1025.000000,1025.000000 
	C873.500000,1025.000000 722.000000,1025.000000 570.000000,1025.000000 
M630.118347,546.485779 
	C630.118347,548.768982 630.118347,551.052185 630.118347,553.137634 
	C632.417175,553.474670 635.331970,554.196655 638.260498,554.257263 
	C641.969788,554.334106 646.805115,555.274475 649.191895,553.375366 
	C655.737244,548.167358 661.255615,541.668640 667.180481,535.680847 
	C667.088379,535.251892 666.996277,534.822937 666.904175,534.393982 
	C658.691467,534.832092 650.464233,535.110718 642.279846,535.858765 
	C640.843933,535.989990 639.388062,537.932190 638.292847,539.316101 
	C636.338013,541.786194 634.783508,544.574585 632.811890,547.029358 
	C631.114319,549.143005 630.568359,549.014343 627.915222,547.010498 
	C628.275757,545.961792 628.423767,544.767334 629.028076,543.885742 
	C642.850647,523.720215 655.690430,502.968872 665.995667,480.760895 
	C671.427429,469.055206 676.397095,457.135162 681.575378,445.311890 
	C681.184509,445.139954 680.793579,444.968018 680.402710,444.796112 
	C680.088928,445.335114 679.720154,445.849792 679.469116,446.416595 
	C662.521667,484.679901 642.225342,521.014221 615.439880,553.299805 
	C598.443298,573.786560 580.428101,593.433655 562.685059,613.292358 
	C557.284302,619.337097 551.268982,624.832764 545.775635,630.587341 
	C545.775635,630.587341 545.638123,630.832764 545.638123,630.832764 
	C545.638123,630.832764 545.638184,630.491211 546.338196,630.676697 
	C548.412964,629.347595 550.615906,628.181458 552.542908,626.664612 
	C576.005493,608.195557 595.508728,585.904358 614.085571,562.727539 
	C618.233215,557.552795 622.293701,552.307312 626.512329,547.191711 
	C626.868164,546.760193 628.124023,547.070801 630.118347,546.485779 
M485.233643,626.953735 
	C485.468018,627.437317 485.702362,627.920898 485.936707,628.404480 
	C485.848633,627.770630 485.760529,627.136841 484.973511,626.446411 
	C481.243317,622.884705 477.286530,619.529663 473.819092,615.728333 
	C448.142487,587.578857 422.973877,559.006897 400.922974,527.840027 
	C383.512024,503.231323 369.457916,476.734924 356.358002,449.674774 
	C355.315857,447.522125 353.298645,445.855927 351.870514,443.866089 
	C351.495392,443.343445 351.630005,442.454956 351.530548,441.734467 
	C352.080811,441.301422 352.631104,440.868378 353.181366,440.435333 
	C353.470367,441.337982 353.879211,442.221893 354.023560,443.147095 
	C354.327332,445.094116 354.023743,447.271423 354.788696,448.989410 
	C360.711151,462.289886 366.127533,475.882935 373.041046,488.660126 
	C385.227081,511.181610 397.971161,533.380615 415.164825,552.741821 
	C425.363281,564.226013 434.402405,576.738464 443.993378,588.764160 
	C446.479431,591.881287 449.155823,594.849304 451.571503,598.017883 
	C452.120605,598.738159 451.949402,600.007507 452.109741,601.024231 
	C450.928619,601.131409 449.473358,601.725281 448.622681,601.245972 
	C446.771393,600.202820 445.270172,598.557007 443.547424,597.261841 
	C441.845703,595.982422 440.116211,593.930725 438.278839,593.790405 
	C432.407837,593.342163 426.481110,593.624023 419.102997,593.624023 
	C427.897125,601.416016 432.808655,612.779114 446.553406,609.682068 
	C448.304291,609.287537 450.240540,609.762451 452.026123,609.456360 
	C452.960632,609.296143 454.454498,608.364258 454.502686,607.695007 
	C454.965424,601.269409 457.519897,604.256897 459.957458,606.362488 
	C467.241882,612.654968 474.498657,618.980652 481.871765,625.167664 
	C482.846130,625.985229 484.433319,626.072571 485.233643,626.953735 
M543.590698,657.361633 
	C537.097839,657.556824 530.603699,657.719666 524.112488,657.959595 
	C520.311768,658.100037 518.667480,656.449463 518.885498,652.574036 
	C519.175354,647.420959 519.300232,642.252014 519.295166,637.090027 
	C519.243164,584.277222 519.111633,531.464417 519.203064,478.651917 
	C519.206909,476.415649 520.571716,473.305145 522.329651,472.099213 
	C530.214600,466.690155 538.460693,461.805908 546.602112,456.773773 
	C548.484497,455.610260 550.467957,454.610168 553.166382,453.112122 
	C553.166382,468.212372 553.166382,482.294067 553.166382,497.214935 
	C556.833191,494.730591 560.077332,492.996246 562.697632,490.584198 
	C564.279236,489.128235 565.784485,486.629028 565.806274,484.582428 
	C566.166382,450.764984 566.310608,416.945007 566.380920,383.125366 
	C566.384277,381.500641 565.710022,379.382294 564.574585,378.340118 
	C561.222595,375.263458 557.480225,372.612152 552.997131,369.093140 
	C552.997131,371.881409 552.995422,373.477722 552.997375,375.074036 
	C553.024414,396.732574 552.987000,418.391571 553.147888,440.049103 
	C553.172668,443.386169 552.315063,445.425354 549.309875,447.253906 
	C539.089539,453.472626 529.195312,460.227875 518.965759,466.430603 
	C515.202637,468.712372 514.026611,471.361359 514.039612,475.697174 
	C514.216370,534.508057 514.147766,593.319641 514.325195,652.130554 
	C514.338440,656.519287 512.986206,658.225098 508.739166,658.008179 
	C505.747375,657.855286 502.744049,657.935303 499.746155,657.893250 
	C484.421295,657.678162 469.095642,657.502014 453.772461,657.201294 
	C450.613647,657.139282 449.045807,657.960449 450.170105,661.865601 
	C452.200867,661.865601 454.171295,661.881592 456.141388,661.863098 
	C473.800476,661.697449 491.459564,661.536682 509.118347,661.345032 
	C512.034546,661.313354 514.391174,661.566223 514.312439,665.499390 
	C514.109009,675.659363 514.254272,685.828552 513.889099,695.980774 
	C513.826782,697.712524 512.314209,699.947693 510.806793,700.970276 
	C505.812225,704.357971 503.835938,708.247009 505.143677,713.595032 
	C506.303375,718.337524 510.732941,721.943665 515.584473,722.094910 
	C520.887329,722.260254 525.148254,719.419861 526.761353,714.644104 
	C528.500488,709.495361 526.491089,704.441528 522.093567,701.065430 
	C520.579956,699.903381 519.273071,697.487732 519.203613,695.596008 
	C518.867737,686.443604 518.956848,677.274475 518.951904,668.111328 
	C518.948425,661.684753 519.308594,661.330017 525.759094,661.410889 
	C543.417725,661.632263 561.075684,661.958862 578.734680,662.020447 
	C580.334412,662.026062 581.939819,660.421631 583.542603,659.564819 
	C581.878540,658.737488 580.222351,657.213867 578.549194,657.195129 
	C567.222900,657.068359 555.893066,657.259766 543.590698,657.361633 
M504.268219,430.753021 
	C508.174896,428.216614 512.292053,425.940338 515.892883,423.026031 
	C517.513977,421.713959 519.017517,419.133575 519.028503,417.120239 
	C519.270020,372.966644 519.305237,328.811920 519.349731,284.657379 
	C519.357971,276.494263 519.244324,268.330963 519.149109,260.168152 
	C519.144165,259.743378 518.782227,259.322754 518.473328,258.656036 
	C517.018738,258.821777 515.591003,258.984436 513.931885,259.173492 
	C513.931885,262.323395 513.929749,265.150330 513.932129,267.977234 
	C513.970825,313.298523 513.668213,358.624725 514.316895,403.937286 
	C514.458801,413.852814 511.912018,419.932617 502.959900,424.339203 
	C495.176483,428.170471 488.143158,433.525574 479.704071,438.890198 
	C479.704071,415.057709 479.704071,392.454407 479.704071,368.954529 
	C476.126953,371.222656 473.582428,373.083435 470.819946,374.527252 
	C467.073303,376.485443 466.177948,379.327942 466.206116,383.465790 
	C466.421783,415.122070 466.361542,446.780212 466.394257,478.437775 
	C466.403503,487.390594 469.818146,492.022614 479.719391,495.704773 
	C479.719391,493.833313 479.714569,492.275604 479.720123,490.717926 
	C479.767792,477.388367 479.919067,464.057800 479.789459,450.729980 
	C479.759857,447.684631 480.741608,445.901093 483.279968,444.322449 
	C490.144348,440.053192 496.851776,435.531555 504.268219,430.753021 
M393.332672,538.195740 
	C385.606384,534.316772 377.412994,535.583557 368.090912,535.219177 
	C374.402344,541.880188 379.620941,547.656982 385.203186,553.057922 
	C386.353424,554.170837 388.892914,554.301514 390.734406,554.155762 
	C395.103241,553.810242 399.437500,553.027344 403.244751,552.496643 
	C400.294769,548.229797 397.005341,543.471924 393.332672,538.195740 
M632.810852,575.307861 
	C635.941040,572.208557 639.071228,569.109253 642.868042,565.349854 
	C637.711548,565.349854 633.615601,565.290039 629.521973,565.362854 
	C621.984619,565.496948 615.513062,567.547852 611.546448,574.762207 
	C610.072937,577.442139 607.818604,579.692688 606.203857,581.773621 
	C610.457947,582.190857 615.060181,583.004395 619.651978,582.949158 
	C622.183716,582.918762 624.889038,581.770020 627.162109,580.494568 
	C629.132202,579.389282 630.603394,577.394775 632.810852,575.307861 
M549.519653,610.892639 
	C543.953735,618.470764 538.387817,626.048950 532.821960,633.627136 
	C535.007019,632.324341 536.893799,630.753967 538.588379,628.998108 
	C548.278503,618.957825 557.574158,608.503296 567.716187,598.945435 
	C573.615906,593.385498 573.237061,587.310059 571.505493,580.074341 
	C564.318359,590.154419 557.131226,600.234497 549.519653,610.892639 
M460.192413,590.175842 
	C459.486816,594.386902 462.645264,596.378235 465.133362,598.739136 
	C477.403259,610.381592 489.690125,622.006165 501.933258,633.676697 
	C502.486572,634.204102 502.673431,635.115906 503.030945,635.848694 
	C502.641693,636.102295 502.252411,636.355896 501.863159,636.609497 
	C488.559906,618.030823 475.256653,599.452087 461.694916,580.512451 
	C460.890900,581.801758 460.591736,582.064209 460.573822,582.344604 
	C460.425507,584.665527 460.329285,586.989807 460.192413,590.175842 
M585.922241,609.784058 
	C600.375061,613.058838 606.207520,601.760376 614.742493,593.418091 
	C607.601440,593.418091 601.463867,593.324768 595.333191,593.490417 
	C593.977844,593.527039 592.202881,594.103638 591.381287,595.074707 
	C587.577271,599.570801 584.041199,604.293579 580.024048,609.427307 
	C582.169678,609.576721 583.617371,609.677551 585.922241,609.784058 
M417.902710,580.666260 
	C417.447327,578.238525 417.435394,575.602478 416.419037,573.438171 
	C415.270691,570.992798 413.453979,567.348450 411.517700,567.069153 
	C405.680115,566.227051 399.643433,566.765320 394.513611,566.765320 
	C399.218414,571.827576 403.883026,577.454346 409.229156,582.334534 
	C411.780914,584.663940 415.458099,584.347595 417.902710,580.666260 
M621.366028,527.537720 
	C621.772034,528.243103 622.178101,528.948486 622.563232,529.617676 
	C631.218933,518.599670 631.462341,512.994080 623.811279,501.060272 
	C618.213074,509.149231 614.468933,517.527222 621.366028,527.537720 
M667.796143,433.455566 
	C666.832764,431.210022 665.869446,428.964447 664.975098,426.879700 
	C654.381409,438.165955 660.425171,448.510193 666.335083,457.791443 
	C671.210571,450.887543 673.018311,442.744781 667.796143,433.455566 
M364.378723,440.143036 
	C363.979980,442.242615 363.085938,444.399780 363.321381,446.425659 
	C363.558563,448.466644 364.885956,450.392151 365.795135,452.340546 
	C366.600464,454.066406 367.487427,455.754181 368.211365,457.204285 
	C376.604553,439.972626 376.674408,438.329498 369.065674,426.639557 
	C367.489227,431.057129 366.001770,435.225433 364.378723,440.143036 
M586.356201,622.446350 
	C588.053589,620.776733 587.589355,619.932007 585.331360,619.883118 
	C581.676453,619.803955 577.983032,620.094482 574.372070,619.668274 
	C565.344543,618.602600 560.165222,623.881226 555.020325,630.858521 
	C558.941223,630.858521 562.310913,630.441101 565.539185,630.939575 
	C574.017395,632.248840 580.764526,629.699036 586.356201,622.446350 
M474.473206,626.807495 
	C467.152710,615.289734 455.782074,620.684814 445.374664,619.225098 
	C453.333344,630.858398 463.636597,634.121826 477.345001,629.763306 
	C476.513611,628.849670 475.757233,628.018433 474.473206,626.807495 
M655.112671,478.951508 
	C661.727966,469.267181 661.188354,460.638702 653.686951,451.417877 
	C646.420166,459.751617 648.669617,468.240021 654.004822,476.669250 
	C654.428162,477.338135 654.627197,478.148987 655.112671,478.951508 
M381.545654,472.380981 
	C385.491028,465.385162 385.318054,458.616394 380.391296,452.177399 
	C373.641144,465.000824 373.494019,467.625000 378.920013,478.444244 
	C379.681763,476.660767 380.459442,474.839966 381.545654,472.380981 
M605.990417,538.788818 
	C606.823853,541.965759 607.657227,545.142639 608.270630,547.480896 
	C616.169617,542.351685 613.966187,534.745056 611.500305,527.103333 
	C611.168274,526.074402 610.779602,525.063782 610.417114,524.044678 
	C610.037659,523.942993 609.658142,523.841309 609.278687,523.739624 
	C608.094604,528.500549 606.910461,533.261475 605.990417,538.788818 
M647.777710,489.501099 
	C646.844299,483.734711 645.910828,477.968353 644.977417,472.201965 
	C644.374023,472.245789 643.770691,472.289612 643.167297,472.333466 
	C641.601318,476.134247 640.058594,479.944855 638.462280,483.732880 
	C637.083374,487.005127 637.398682,490.131134 640.184448,492.306488 
	C643.369263,494.793427 645.172913,491.452393 647.777710,489.501099 
M417.166138,513.323181 
	C415.297424,509.248566 413.428680,505.173981 411.176727,500.263733 
	C409.610229,504.758362 408.196960,508.129547 407.281219,511.630859 
	C406.343475,515.216125 409.316040,520.114746 412.726746,520.275879 
	C416.878235,520.471924 416.910187,516.918579 417.166138,513.323181 
M594.229492,550.096008 
	C593.028198,552.406006 591.826965,554.716003 590.578918,557.115906 
	C594.209229,557.115906 597.421448,557.115906 601.183472,557.115906 
	C600.567871,553.532471 600.098083,550.458557 599.496887,547.410522 
	C599.060486,545.198425 598.450134,543.020569 597.917480,540.827454 
	C598.379456,540.732910 598.841492,540.638367 599.303467,540.543823 
	C597.729919,543.513123 596.156311,546.482422 594.229492,550.096008 
M429.134399,537.270142 
	C427.969635,533.174683 426.804840,529.079224 425.640045,524.983765 
	C425.210022,525.070740 424.779999,525.157776 424.349976,525.244812 
	C423.154144,529.442749 421.958313,533.640686 420.466461,538.877869 
	C424.136108,538.407288 426.569031,538.095276 429.134399,537.270142 
M393.614105,478.522583 
	C392.937897,477.144287 392.261688,475.765961 391.410431,474.030853 
	C385.602692,487.301636 385.927063,488.300934 396.279510,487.664856 
	C395.451965,484.721832 394.673004,481.951477 393.614105,478.522583 
M434.899017,550.290039 
	C434.814911,554.908325 438.599152,557.608704 444.182678,556.756714 
	C441.676453,552.205933 439.201080,547.711304 436.675201,543.124878 
	C436.102051,545.433350 435.583710,547.520935 434.899017,550.290039 
z"/>
<path fill="#93BE9A" opacity="1.000000" stroke="none" 
	d="
M544.077515,657.354980 
	C555.893066,657.259766 567.222900,657.068359 578.549194,657.195129 
	C580.222351,657.213867 581.878540,658.737488 583.542603,659.564819 
	C581.939819,660.421631 580.334412,662.026062 578.734680,662.020447 
	C561.075684,661.958862 543.417725,661.632263 525.759094,661.410889 
	C519.308594,661.330017 518.948425,661.684753 518.951904,668.111328 
	C518.956848,677.274475 518.867737,686.443604 519.203613,695.596008 
	C519.273071,697.487732 520.579956,699.903381 522.093567,701.065430 
	C526.491089,704.441528 528.500488,709.495361 526.761353,714.644104 
	C525.148254,719.419861 520.887329,722.260254 515.584473,722.094910 
	C510.732941,721.943665 506.303375,718.337524 505.143677,713.595032 
	C503.835938,708.247009 505.812225,704.357971 510.806793,700.970276 
	C512.314209,699.947693 513.826782,697.712524 513.889099,695.980774 
	C514.254272,685.828552 514.109009,675.659363 514.312439,665.499390 
	C514.391174,661.566223 512.034546,661.313354 509.118347,661.345032 
	C491.459564,661.536682 473.800476,661.697449 456.141388,661.863098 
	C454.171295,661.881592 452.200867,661.865601 450.170105,661.865601 
	C449.045807,657.960449 450.613647,657.139282 453.772461,657.201294 
	C469.095642,657.502014 484.421295,657.678162 499.746155,657.893250 
	C502.744049,657.935303 505.747375,657.855286 508.739166,658.008179 
	C512.986206,658.225098 514.338440,656.519287 514.325195,652.130554 
	C514.147766,593.319641 514.216370,534.508057 514.039612,475.697174 
	C514.026611,471.361359 515.202637,468.712372 518.965759,466.430603 
	C529.195312,460.227875 539.089539,453.472626 549.309875,447.253906 
	C552.315063,445.425354 553.172668,443.386169 553.147888,440.049103 
	C552.987000,418.391571 553.024414,396.732574 552.997375,375.074036 
	C552.995422,373.477722 552.997131,371.881409 552.997131,369.093140 
	C557.480225,372.612152 561.222595,375.263458 564.574585,378.340118 
	C565.710022,379.382294 566.384277,381.500641 566.380920,383.125366 
	C566.310608,416.945007 566.166382,450.764984 565.806274,484.582428 
	C565.784485,486.629028 564.279236,489.128235 562.697632,490.584198 
	C560.077332,492.996246 556.833191,494.730591 553.166382,497.214935 
	C553.166382,482.294067 553.166382,468.212372 553.166382,453.112122 
	C550.467957,454.610168 548.484497,455.610260 546.602112,456.773773 
	C538.460693,461.805908 530.214600,466.690155 522.329651,472.099213 
	C520.571716,473.305145 519.206909,476.415649 519.203064,478.651917 
	C519.111633,531.464417 519.243164,584.277222 519.295166,637.090027 
	C519.300232,642.252014 519.175354,647.420959 518.885498,652.574036 
	C518.667480,656.449463 520.311768,658.100037 524.112488,657.959595 
	C530.603699,657.719666 537.097839,657.556824 544.077515,657.354980 
z"/>
<path fill="#93BE9A" opacity="1.000000" stroke="none" 
	d="
M503.944885,430.931549 
	C496.851776,435.531555 490.144348,440.053192 483.279968,444.322449 
	C480.741608,445.901093 479.759857,447.684631 479.789459,450.729980 
	C479.919067,464.057800 479.767792,477.388367 479.720123,490.717926 
	C479.714569,492.275604 479.719391,493.833313 479.719391,495.704773 
	C469.818146,492.022614 466.403503,487.390594 466.394257,478.437775 
	C466.361542,446.780212 466.421783,415.122070 466.206116,383.465790 
	C466.177948,379.327942 467.073303,376.485443 470.819946,374.527252 
	C473.582428,373.083435 476.126953,371.222656 479.704071,368.954529 
	C479.704071,392.454407 479.704071,415.057709 479.704071,438.890198 
	C488.143158,433.525574 495.176483,428.170471 502.959900,424.339203 
	C511.912018,419.932617 514.458801,413.852814 514.316895,403.937286 
	C513.668213,358.624725 513.970825,313.298523 513.932129,267.977234 
	C513.929749,265.150330 513.931885,262.323395 513.931885,259.173492 
	C515.591003,258.984436 517.018738,258.821777 518.473328,258.656036 
	C518.782227,259.322754 519.144165,259.743378 519.149109,260.168152 
	C519.244324,268.330963 519.357971,276.494263 519.349731,284.657379 
	C519.305237,328.811920 519.270020,372.966644 519.028503,417.120239 
	C519.017517,419.133575 517.513977,421.713959 515.892883,423.026031 
	C512.292053,425.940338 508.174896,428.216614 503.944885,430.931549 
z"/>
<path fill="#93BE9A" opacity="1.000000" stroke="none" 
	d="
M485.736694,626.498047 
	C484.433319,626.072571 482.846130,625.985229 481.871765,625.167664 
	C474.498657,618.980652 467.241882,612.654968 459.957458,606.362488 
	C457.519897,604.256897 454.965424,601.269409 454.502686,607.695007 
	C454.454498,608.364258 452.960632,609.296143 452.026123,609.456360 
	C450.240540,609.762451 448.304291,609.287537 446.553406,609.682068 
	C432.808655,612.779114 427.897125,601.416016 419.102997,593.624023 
	C426.481110,593.624023 432.407837,593.342163 438.278839,593.790405 
	C440.116211,593.930725 441.845703,595.982422 443.547424,597.261841 
	C445.270172,598.557007 446.771393,600.202820 448.622681,601.245972 
	C449.473358,601.725281 450.928619,601.131409 452.109741,601.024170 
	C451.949402,600.007507 452.120605,598.738159 451.571503,598.017883 
	C449.155823,594.849304 446.479431,591.881287 443.993378,588.764160 
	C434.402405,576.738464 425.363281,564.226013 415.164825,552.741821 
	C397.971161,533.380615 385.227081,511.181610 373.041046,488.660126 
	C366.127533,475.882935 360.711151,462.289886 354.788696,448.989410 
	C354.023743,447.271423 354.327332,445.094116 354.023560,443.147095 
	C353.879211,442.221893 353.470367,441.337982 353.181366,440.435333 
	C352.631104,440.868378 352.080811,441.301422 351.530548,441.734467 
	C351.630005,442.454956 351.495392,443.343445 351.870514,443.866089 
	C353.298645,445.855927 355.315857,447.522125 356.358002,449.674774 
	C369.457916,476.734924 383.512024,503.231323 400.922974,527.840027 
	C422.973877,559.006897 448.142487,587.578857 473.819092,615.728333 
	C477.286530,619.529663 481.243317,622.884705 485.329895,626.497681 
	C485.686310,626.549011 485.736694,626.498047 485.736694,626.498047 
M448.656494,598.849548 
	C449.498871,599.807556 450.287323,600.828430 451.246582,601.649902 
	C451.377716,601.762207 452.360443,600.880066 452.948883,600.458374 
	C451.845764,599.467896 450.742645,598.477417 448.656494,598.849548 
z"/>
<path fill="#93BE9A" opacity="1.000000" stroke="none" 
	d="
M545.535095,630.579895 
	C551.268982,624.832764 557.284302,619.337097 562.685059,613.292358 
	C580.428101,593.433655 598.443298,573.786560 615.439880,553.299805 
	C642.225342,521.014221 662.521667,484.679901 679.469116,446.416595 
	C679.720154,445.849792 680.088928,445.335114 680.402710,444.796112 
	C680.793579,444.968018 681.184509,445.139954 681.575378,445.311890 
	C676.397095,457.135162 671.427429,469.055206 665.995667,480.760895 
	C655.690430,502.968872 642.850647,523.720215 629.028076,543.885742 
	C628.423767,544.767334 628.275757,545.961792 628.432495,547.011108 
	C628.949768,547.011719 628.961731,547.036621 628.961731,547.036621 
	C628.124023,547.070801 626.868164,546.760193 626.512329,547.191711 
	C622.293701,552.307312 618.233215,557.552795 614.085571,562.727539 
	C595.508728,585.904358 576.005493,608.195557 552.542908,626.664612 
	C550.615906,628.181458 548.412964,629.347595 545.983093,630.630127 
	C545.627991,630.583557 545.535095,630.579895 545.535095,630.579895 
z"/>
<path fill="#93BE9A" opacity="1.000000" stroke="none" 
	d="
M628.939819,547.010986 
	C630.568359,549.014343 631.114319,549.143005 632.811890,547.029358 
	C634.783508,544.574585 636.338013,541.786194 638.292847,539.316101 
	C639.388062,537.932190 640.843933,535.989990 642.279846,535.858765 
	C650.464233,535.110718 658.691467,534.832092 666.904175,534.393982 
	C666.996277,534.822937 667.088379,535.251892 667.180481,535.680847 
	C661.255615,541.668640 655.737244,548.167358 649.191895,553.375366 
	C646.805115,555.274475 641.969788,554.334106 638.260498,554.257263 
	C635.331970,554.196655 632.417175,553.474670 630.118347,553.137634 
	C630.118347,551.052185 630.118347,548.768982 629.540039,546.761230 
	C628.961731,547.036621 628.949768,547.011719 628.939819,547.010986 
z"/>
<path fill="#93BE9A" opacity="1.000000" stroke="none" 
	d="
M393.524292,538.454895 
	C397.005341,543.471924 400.294769,548.229797 403.244751,552.496643 
	C399.437500,553.027344 395.103241,553.810242 390.734406,554.155762 
	C388.892914,554.301514 386.353424,554.170837 385.203186,553.057922 
	C379.620941,547.656982 374.402344,541.880188 368.090912,535.219177 
	C377.412994,535.583557 385.606384,534.316772 393.524292,538.454895 
z"/>
<path fill="#93BE9A" opacity="1.000000" stroke="none" 
	d="
M632.552979,575.550598 
	C630.603394,577.394775 629.132202,579.389282 627.162109,580.494568 
	C624.889038,581.770020 622.183716,582.918762 619.651978,582.949158 
	C615.060181,583.004395 610.457947,582.190857 606.203857,581.773621 
	C607.818604,579.692688 610.072937,577.442139 611.546448,574.762207 
	C615.513062,567.547852 621.984619,565.496948 629.521973,565.362854 
	C633.615601,565.290039 637.711548,565.349854 642.868042,565.349854 
	C639.071228,569.109253 635.941040,572.208557 632.552979,575.550598 
z"/>
<path fill="#93BE9A" opacity="1.000000" stroke="none" 
	d="
M549.731873,610.603577 
	C557.131226,600.234497 564.318359,590.154419 571.505493,580.074341 
	C573.237061,587.310059 573.615906,593.385498 567.716187,598.945435 
	C557.574158,608.503296 548.278503,618.957825 538.588379,628.998108 
	C536.893799,630.753967 535.007019,632.324341 532.821960,633.627136 
	C538.387817,626.048950 543.953735,618.470764 549.731873,610.603577 
z"/>
<path fill="#93BE9A" opacity="1.000000" stroke="none" 
	d="
M460.204865,589.744446 
	C460.329285,586.989807 460.425507,584.665527 460.573822,582.344604 
	C460.591736,582.064209 460.890900,581.801758 461.694916,580.512451 
	C475.256653,599.452087 488.559906,618.030823 501.863159,636.609497 
	C502.252411,636.355896 502.641693,636.102295 503.030945,635.848694 
	C502.673431,635.115906 502.486572,634.204102 501.933258,633.676697 
	C489.690125,622.006165 477.403259,610.381592 465.133362,598.739136 
	C462.645264,596.378235 459.486816,594.386902 460.204865,589.744446 
z"/>
<path fill="#93BE9A" opacity="1.000000" stroke="none" 
	d="
M585.493652,609.781250 
	C583.617371,609.677551 582.169678,609.576721 580.024048,609.427307 
	C584.041199,604.293579 587.577271,599.570801 591.381287,595.074707 
	C592.202881,594.103638 593.977844,593.527039 595.333191,593.490417 
	C601.463867,593.324768 607.601440,593.418091 614.742493,593.418091 
	C606.207520,601.760376 600.375061,613.058838 585.493652,609.781250 
z"/>
<path fill="#93BE9A" opacity="1.000000" stroke="none" 
	d="
M417.989197,580.950073 
	C415.458099,584.347595 411.780914,584.663940 409.229156,582.334534 
	C403.883026,577.454346 399.218414,571.827576 394.513611,566.765320 
	C399.643433,566.765320 405.680115,566.227051 411.517700,567.069153 
	C413.453979,567.348450 415.270691,570.992798 416.419037,573.438171 
	C417.435394,575.602478 417.447327,578.238525 417.989197,580.950073 
z"/>
<path fill="#93BE9A" opacity="1.000000" stroke="none" 
	d="
M621.229614,527.249573 
	C614.468933,517.527222 618.213074,509.149231 623.811279,501.060272 
	C631.462341,512.994080 631.218933,518.599670 622.563232,529.617676 
	C622.178101,528.948486 621.772034,528.243103 621.229614,527.249573 
z"/>
<path fill="#93BE9A" opacity="1.000000" stroke="none" 
	d="
M667.889282,433.821228 
	C673.018311,442.744781 671.210571,450.887543 666.335083,457.791443 
	C660.425171,448.510193 654.381409,438.165955 664.975098,426.879700 
	C665.869446,428.964447 666.832764,431.210022 667.889282,433.821228 
z"/>
<path fill="#93BE9A" opacity="1.000000" stroke="none" 
	d="
M364.446533,439.768372 
	C366.001770,435.225433 367.489227,431.057129 369.065674,426.639557 
	C376.674408,438.329498 376.604553,439.972626 368.211365,457.204285 
	C367.487427,455.754181 366.600464,454.066406 365.795135,452.340546 
	C364.885956,450.392151 363.558563,448.466644 363.321381,446.425659 
	C363.085938,444.399780 363.979980,442.242615 364.446533,439.768372 
z"/>
<path fill="#93BE9A" opacity="1.000000" stroke="none" 
	d="
M586.138916,622.659241 
	C580.764526,629.699036 574.017395,632.248840 565.539185,630.939575 
	C562.310913,630.441101 558.941223,630.858521 555.020325,630.858521 
	C560.165222,623.881226 565.344543,618.602600 574.372070,619.668274 
	C577.983032,620.094482 581.676453,619.803955 585.331360,619.883118 
	C587.589355,619.932007 588.053589,620.776733 586.138916,622.659241 
z"/>
<path fill="#93BE9A" opacity="1.000000" stroke="none" 
	d="
M474.737030,626.997314 
	C475.757233,628.018433 476.513611,628.849670 477.345001,629.763306 
	C463.636597,634.121826 453.333344,630.858398 445.374664,619.225098 
	C455.782074,620.684814 467.152710,615.289734 474.737030,626.997314 
z"/>
<path fill="#93BE9A" opacity="1.000000" stroke="none" 
	d="
M655.021606,478.922668 
	C654.627197,478.148987 654.428162,477.338135 654.004822,476.669250 
	C648.669617,468.240021 646.420166,459.751617 653.686951,451.417877 
	C661.188354,460.638702 661.727966,469.267181 655.021606,478.922668 
z"/>
<path fill="#93BE9A" opacity="1.000000" stroke="none" 
	d="
M381.391388,472.700073 
	C380.459442,474.839966 379.681763,476.660767 378.920013,478.444244 
	C373.494019,467.625000 373.641144,465.000824 380.391296,452.177399 
	C385.318054,458.616394 385.491028,465.385162 381.391388,472.700073 
z"/>
<path fill="#93BE9A" opacity="1.000000" stroke="none" 
	d="
M605.858398,538.405640 
	C606.910461,533.261475 608.094604,528.500549 609.278687,523.739624 
	C609.658142,523.841309 610.037659,523.942993 610.417114,524.044678 
	C610.779602,525.063782 611.168274,526.074402 611.500305,527.103333 
	C613.966187,534.745056 616.169617,542.351685 608.270630,547.480896 
	C607.657227,545.142639 606.823853,541.965759 605.858398,538.405640 
z"/>
<path fill="#93BE9A" opacity="1.000000" stroke="none" 
	d="
M647.561401,489.727203 
	C645.172913,491.452393 643.369263,494.793427 640.184448,492.306488 
	C637.398682,490.131134 637.083374,487.005127 638.462280,483.732880 
	C640.058594,479.944855 641.601318,476.134247 643.167297,472.333466 
	C643.770691,472.289612 644.374023,472.245789 644.977417,472.201965 
	C645.910828,477.968353 646.844299,483.734711 647.561401,489.727203 
z"/>
<path fill="#93BE9A" opacity="1.000000" stroke="none" 
	d="
M417.229614,513.645264 
	C416.910187,516.918579 416.878235,520.471924 412.726746,520.275879 
	C409.316040,520.114746 406.343475,515.216125 407.281219,511.630859 
	C408.196960,508.129547 409.610229,504.758362 411.176727,500.263733 
	C413.428680,505.173981 415.297424,509.248566 417.229614,513.645264 
z"/>
<path fill="#93BE9A" opacity="1.000000" stroke="none" 
	d="
M594.406128,549.773865 
	C596.156311,546.482422 597.729919,543.513123 599.303467,540.543823 
	C598.841492,540.638367 598.379456,540.732910 597.917480,540.827454 
	C598.450134,543.020569 599.060486,545.198425 599.496887,547.410522 
	C600.098083,550.458557 600.567871,553.532471 601.183472,557.115906 
	C597.421448,557.115906 594.209229,557.115906 590.578918,557.115906 
	C591.826965,554.716003 593.028198,552.406006 594.406128,549.773865 
z"/>
<path fill="#93BE9A" opacity="1.000000" stroke="none" 
	d="
M429.068176,537.526733 
	C426.569031,538.095276 424.136108,538.407288 420.466461,538.877869 
	C421.958313,533.640686 423.154144,529.442749 424.349976,525.244812 
	C424.779999,525.157776 425.210022,525.070740 425.640045,524.983765 
	C426.804840,529.079224 427.969635,533.174683 429.068176,537.526733 
z"/>
<path fill="#93BE9A" opacity="1.000000" stroke="none" 
	d="
M393.754059,478.851868 
	C394.673004,481.951477 395.451965,484.721832 396.279510,487.664856 
	C385.927063,488.300934 385.602692,487.301636 391.410431,474.030853 
	C392.261688,475.765961 392.937897,477.144287 393.754059,478.851868 
z"/>
<path fill="#93BE9A" opacity="1.000000" stroke="none" 
	d="
M434.982178,549.949341 
	C435.583710,547.520935 436.102051,545.433350 436.675201,543.124878 
	C439.201080,547.711304 441.676453,552.205933 444.182678,556.756714 
	C438.599152,557.608704 434.814911,554.908325 434.982178,549.949341 
z"/>
<path fill="#93BE9A" opacity="1.000000" stroke="none" 
	d="
M485.679382,626.526001 
	C485.760529,627.136841 485.848633,627.770630 485.936707,628.404480 
	C485.702362,627.920898 485.468018,627.437317 485.485168,626.725891 
	C485.736694,626.498047 485.686310,626.549011 485.679382,626.526001 
z"/>
<path fill="#93BE9A" opacity="1.000000" stroke="none" 
	d="
M545.633057,630.537354 
	C545.638184,630.491211 545.638123,630.832764 545.638123,630.832764 
	C545.638123,630.832764 545.775635,630.587341 545.655396,630.583618 
	C545.535095,630.579895 545.627991,630.583557 545.633057,630.537354 
z"/>
<path fill="#000000" opacity="1.000000" stroke="none" 
	d="
M449.148010,598.168213 
	C450.742645,598.477417 451.845764,599.467896 452.948883,600.458374 
	C452.360443,600.880066 451.377716,601.762207 451.246582,601.649902 
	C450.287323,600.828430 449.498871,599.807556 449.148010,598.168213 
z"/>
</svg>